<?xml version="1.0" standalone="no"?>
<!DOCTYPE svg PUBLIC "-//W3C//DTD SVG 20010904//EN"
 "http://www.w3.org/TR/2001/REC-SVG-20010904/DTD/svg10.dtd">
<svg version="1.0" xmlns="http://www.w3.org/2000/svg"
 width="465.000000pt" height="465.000000pt" viewBox="0 0 465.000000 465.000000"
 preserveAspectRatio="xMidYMid meet">
<metadata>
Created by potrace 1.11, written by Peter Selinger 2001-2013
</metadata>
<g transform="translate(0.000000,465.000000) scale(0.100000,-0.100000)"
fill="#000000" stroke="none">
<path d="M253 4175 c-101 -31 -179 -101 -225 -201 l-23 -49 0 -1585 c0 -1492
1 -1588 18 -1629 39 -99 127 -181 228 -212 60 -19 116 -19 2093 -17 l2031 3
47 22 c69 31 112 67 152 126 70 102 66 3 66 1711 0 1715 4 1605 -69 1702 -20
27 -58 64 -85 81 -100 68 58 63 -2170 62 -1642 0 -2029 -3 -2063 -14z m2416
-1321 c86 3 221 9 301 13 141 6 145 5 130 -13 -8 -10 -80 -98 -160 -194 -166
-200 -200 -244 -200 -260 0 -6 45 -134 100 -284 55 -150 100 -276 100 -279 0
-3 -126 45 -281 108 l-281 114 -171 -136 c-95 -75 -200 -159 -235 -186 -35
-27 -65 -47 -67 -45 -3 3 4 139 15 303 11 164 19 299 18 300 -40 27 -320 217
-392 267 -59 40 -93 69 -85 72 8 3 131 35 274 71 143 36 267 68 276 71 15 4
43 94 171 552 9 34 10 32 170 -223 l161 -258 156 7z"/>
</g>
</svg>
